{"title":"WWE.TLC.Preview.2009.12.13.WS.PDTV.x264-OTRT","uid":5215638,"size":207057940,"categoryP":"video","categoryS":"tv_shows","magnet":"?xt=urn:btih:a1aec19799aecabf58c3e3ce5562389f598a7006&amp;dn=WWE.TLC.Preview.2009.12.13.WS.PDTV.x264-OTRT&amp;tr=udp%3A%2F%2Ftracker.openbittorrent.com%3A80&amp;tr=udp%3A%2F%2Fopen.demonii.com%3A1337&amp;tr=udp%3A%2F%2Ftracker.coppersurfer.tk%3A6969&amp;tr=udp%3A%2F%2Fexodus.desync.com%3A6969","seeders":0,"leechers":0,"uploader":null,"files":1,"time":1260749529,"description":"Format                          : AVI \nFormat/Info                      : Audio Video Interleave \nFile size                        : 197 MiB \nDuration                        : 23mn 34s \nOverall bit rate                : 1 171 Kbps \nWriting application              : MEncoder UNKNOWN-4.2.4 \nWriting library                  : MPlayer \n\nVideo \nID                              : 0 \nFormat                          : AVC \nFormat/Info                      : Advanced Video Codec \nFormat profile                  : &lt;a class=&quot;__cf_email__&quot; href=&quot;/cdn-cgi/l/email-protection&quot; data-cfemail=&quot;115c70787f515d223f21&quot;&gt;[email&amp;#160;protected]&lt;/a&gt;&lt;script cf-hash='f9e31' type=&quot;text/javascript&quot;&gt;\n/* &lt;![CDATA[ */!function(){try{var t=&quot;currentScript&quot;in document?document.currentScript:function(){for(var t=document.getElementsByTagName(&quot;script&quot;),e=t.length;e--;)if(t[e].getAttribute(&quot;cf-hash&quot;))return t[e]}();if(t&amp;&amp;t.previousSibling){var e,r,n,i,c=t.previousSibling,a=c.getAttribute(&quot;data-cfemail&quot;);if(a){for(e=&quot;&quot;,r=parseInt(a.substr(0,2),16),n=2;a.length-n;n+=2)i=parseInt(a.substr(n,2),16)^r,e+=String.fromCharCode(i);e=document.createTextNode(e),c.parentNode.replaceChild(e,c)}}}catch(u){}}();/* ]]&gt; */&lt;/script&gt; \nFormat settings, CABAC          : Yes \nFormat settings, ReFrames        : 2 frames \nCodec ID                        : h264 \nDuration                        : 23mn 34s \nBit rate                        : 1 030 Kbps \nNominal bit rate                : 1 050 Kbps \nWidth                            : 640 pixels \nHeight                          : 368 pixels \nDisplay aspect ratio            : 16:9 \nFrame rate                      : 25.000 fps \nResolution                      : 24 bits \nColorimetry                      : 4:2:0 \nScan type                        : Progressive \nBits/(Pixel*Frame)              : 0.175 \nStream size                      : 174 MiB (88%) \nWriting library                  : x264 core 67 r1173 f6d3166 \n\n\nAudio \nID                              : 1 \nFormat                          : MPEG Audio \nFormat version                  : Version 1 \nFormat profile                  : Layer 3 \nFormat_Settings_Mode            : Joint stereo / MS Stereo \nCodec ID                        : 55 \nCodec ID/Hint                    : MP3 \nDuration                        : 23mn 34s \nBit rate mode                    : Constant \nBit rate                        : 128 Kbps \nChannel(s)                      : 2 channels \nSampling rate                    : 48.0 KHz \nResolution                      : 16 bits \nVideo delay                      : 40ms \nStream size                      : 21.6 MiB (11%) \nAlignment                        : Aligned on interleaves \nInterleave, duration            : 24 ms (0.60 video frame)","torrent":{"xt":"urn:btih:a1aec19799aecabf58c3e3ce5562389f598a7006","amp;dn":"WWE.TLC.Preview.2009.12.13.WS.PDTV.x264-OTRT","amp;tr":["udp%3A%2F%2Ftracker.openbittorrent.com%3A80","udp%3A%2F%2Fopen.demonii.com%3A1337","udp%3A%2F%2Ftracker.coppersurfer.tk%3A6969","udp%3A%2F%2Fexodus.desync.com%3A6969"],"infoHash":"a1aec19799aecabf58c3e3ce5562389f598a7006","infoHashBuffer":{"type":"Buffer","data":[161,174,193,151,153,174,202,191,88,195,227,206,85,98,56,159,89,138,112,6]},"announce":[],"urlList":[]}}